<?xml version="1.0" standalone="no"?><!DOCTYPE svg PUBLIC "-//W3C//DTD SVG 1.1//EN" "http://www.w3.org/Graphics/SVG/1.1/DTD/svg11.dtd"><svg t="1774616907810" class="icon" viewBox="0 0 1024 1024" version="1.1" xmlns="http://www.w3.org/2000/svg" p-id="5536" xmlns:xlink="http://www.w3.org/1999/xlink" width="200" height="200"><path d="M960 1024H64V576h64v384h768V576h64v448z m0-768h-64V64H128v192H64V0h896v256z" p-id="5537"></path><path d="M672 554.176a192 192 0 0 1-320 0A192 192 0 0 1 0 448V192h1024v256a192 192 0 0 1-352 106.176zM704 448a128 128 0 0 0 256 0V256H64v192a128 128 0 0 0 256 0h64a128 128 0 0 0 256 0z" p-id="5538"></path></svg>